# xmcd
#
# Track frame offsets:
# 150
# 13937
# 33957
# 54075
# 72072
# 91040
# 109110
# 127547
# 145492
# 163632
# 181890
# 199630
# 214890
# 237170
#
# Disc length: 3355 seconds
#
#
# Revision: 2
# Processed by: cddbd v1.4PL0 Copyright (c) Steve Scherf et al.
# Submitted via: FreeRIP 2.40 
#
DISCID=b00d190e
DTITLE=성시경 - 성시경 3집 (Double Life - The Other Side)
DYEAR=2003
DGENRE=Other
TTITLE0=The memory
TTITLE1=외워 두세요
TTITLE2=팝콘
TTITLE3=First Date
TTITLE4=차마...
TTITLE5=Kiss 할까요
TTITLE6=10월에 눈이 내리면
TTITLE7=Everyday Birthday
TTITLE8=내가 뭐 그렇죠
TTITLE9=그날이후
TTITLE10=그래도... 좋아
TTITLE11=Doing alright
TTITLE12=Forever with you
TTITLE13=저 하늘 걸고
EXTD=YEAR: 2003
EXTT0=
EXTT1=
EXTT2=
EXTT3=
EXTT4=
EXTT5=
EXTT6=
EXTT7=
EXTT8=
EXTT9=
EXTT10=
EXTT11=
EXTT12=
EXTT13=
PLAYORDER=
